<svg xmlns="http://www.w3.org/2000/svg" xmlns:xlink="http://www.w3.org/1999/xlink" width="500" zoomAndPan="magnify" viewBox="0 0 375 374.999991" height="500" preserveAspectRatio="xMidYMid meet" version="1.0"><defs><clipPath id="e31df709f1"><path d="M 37.5 49.617188 L 337.5 49.617188 L 337.5 325.617188 L 37.5 325.617188 Z M 37.5 49.617188 " clip-rule="nonzero"/></clipPath></defs><g clip-path="url(#e31df709f1)"><path fill="#ffffff" d="M 96.164062 247.359375 C 63.789062 247.359375 37.503906 221.074219 37.503906 188.699219 C 37.503906 158.558594 60.234375 133.71875 89.535156 130.464844 C 98.394531 84.402344 138.847656 49.617188 187.5 49.617188 C 236.152344 49.617188 276.605469 84.402344 285.46875 130.464844 C 314.765625 133.71875 337.496094 158.558594 337.496094 188.699219 C 337.496094 218.601562 315.128906 243.261719 286.25 246.878906 C 276.484375 291.730469 236.574219 325.371094 188.765625 325.371094 C 188.285156 325.371094 187.863281 325.371094 187.378906 325.371094 L 187.320312 325.371094 C 175.140625 325.371094 165.253906 319.703125 165.253906 312.710938 C 165.253906 305.65625 175.140625 299.992188 187.320312 299.992188 C 199.558594 299.992188 209.445312 305.65625 209.445312 312.710938 C 209.445312 313.855469 209.203125 315.003906 208.660156 316.085938 C 243.265625 308.550781 270.574219 281.664062 278.835938 247.359375 L 278.835938 133.777344 C 271.417969 90.070312 233.378906 56.730469 187.5 56.730469 C 141.621094 56.730469 103.582031 90.070312 96.164062 133.777344 Z M 226.746094 228.671875 C 224.878906 245.914062 207.273438 259.476562 185.8125 259.476562 C 164.410156 259.476562 146.804688 245.914062 144.9375 228.671875 C 152.230469 240.066406 167.785156 247.964844 185.8125 247.964844 C 203.898438 247.964844 219.453125 240.066406 226.746094 228.671875 Z M 226.746094 228.671875 " fill-opacity="1" fill-rule="evenodd"/></g></svg>